<svg version="1.1" id="Layer_1" xmlns="http://www.w3.org/2000/svg" xmlns:xlink="http://www.w3.org/1999/xlink" x="0px" y="0px" viewBox="61.599998474121094 151.60000610351562 488.7999572753906 488.8000183105469" style="enable-background:new 0 0 612 792;" xml:space="preserve">
<style type="text/css">
	.st0{fill:#FFFFFF;}
	.st1{fill:#231F20;}
</style>
<g>
	<g>
		<circle class="st0" cx="306" cy="396" r="173.4"></circle>
		<path class="st1" d="M306,571.5c-96.8,0-175.5-78.7-175.5-175.5S209.2,220.5,306,220.5S481.5,299.2,481.5,396
			S402.8,571.5,306,571.5z M306,224.7c-94.4,0-171.3,76.8-171.3,171.3S211.6,567.3,306,567.3S477.3,490.4,477.3,396
			S400.4,224.7,306,224.7z"></path>
	</g>
	<g>
		<path class="st1" d="M129.9,338.2c-3.5,10.8-10.4,14.3-25.9,9.3c-16.2-5.2-20.6-12.5-17.3-22.7c3.8-11.9,11.6-12.1,20.5-8.7
			l-1.8,7.2c-8.3-3.3-11.9-1.6-13.3,3c-1.9,6,1.1,9.6,13.8,13.7c12.7,4.1,16.7,2.1,18.6-3.6c2.4-7.3-4.5-9.2-10.6-10.8l2.9-6.7
			C128.3,321.7,133.3,327.5,129.9,338.2z"></path>
		<path class="st1" d="M113.4,281.5l33,18.9l-3.6,6.2l-33-18.9l-5.3,9.3l-5.1-2.9l14.2-24.7l5.1,2.9L113.4,281.5z"></path>
		<path class="st1" d="M171.9,266.9c-1.3-0.1-3-1.2-4.5-2.5c-1-0.9-3.9-3.5-5.5-4.9c-2.1-1.7-5.1-2.4-7.8,0.7l-4.2,4.8l13.3,11.8
			l-4.8,5.4L125.6,253l9.3-10.4c6-6.8,12.6-7.3,18.9-1.6c5,4.5,4.3,8.5,2.7,12.3c3.2-3,7.4-2,12.5,2.6c1.3,1.1,2.7,2.2,3.5,2.9
			c1.4,1.1,3.3,2.4,4.3,2.6L171.9,266.9z M138.4,247.3l-3.7,4.2l10.8,9.6l4.2-4.7c2.8-3.1,2.8-6.6-0.7-9.8
			C145.3,243.3,141.5,243.8,138.4,247.3z"></path>
		<path class="st1" d="M187.1,252.6l-26.2-35.2l5.8-4.3l22.7,30.5l12.9-9.6l3.5,4.7L187.1,252.6z"></path>
		<path class="st1" d="M254.5,217l-5.3-8.3l-12.8,4.3l0.9,9.8l-6.7,2.3l-3.4-45.2l9-3.1l25.1,37.8L254.5,217z M233.8,185l2.2,21.8
			l9.7-3.3L233.8,185z"></path>
		<path class="st1" d="M272.9,212.6l-5.3-43.5l7.1-0.9l4.6,37.7l16-1.9l0.7,5.8L272.9,212.6z"></path>
		<path class="st1" d="M320.3,172.3l-1.8,38l-7.2-0.3l1.8-38l-10.7-0.5l0.3-5.8l28.5,1.3l-0.3,5.8L320.3,172.3z"></path>
		<path class="st1" d="M372.7,223c-10.6-4-13.7-11.1-7.9-26.4c6.1-15.9,13.5-19.9,23.5-16.1c11.7,4.4,11.5,12.2,7.6,20.9l-7.1-2.1
			c3.8-8.1,2.2-11.8-2.3-13.5c-5.9-2.2-9.6,0.6-14.4,13.1s-2.9,16.6,2.7,18.7c7.2,2.7,9.4-4.1,11.3-10l6.5,3.2
			C389.3,222.3,383.2,227,372.7,223z"></path>
		<path class="st1" d="M415.9,245.6l3.3-9.3l-11.2-7.4l-7.2,6.7l-5.9-3.9l33.6-30.4l8,5.3l-14.5,43L415.9,245.6z M428.5,209.6
			l-15.9,15.1l8.6,5.7L428.5,209.6z"></path>
		<path class="st1" d="M445.5,272.5l10.3-30.3l-20.5,19.7l-4.5-4.7l31.6-30.4l4.6,4.8l-11.2,31.2l21.4-20.6l4.5,4.7l-31.6,30.4
			L445.5,272.5z"></path>
		<path class="st1" d="M465.9,301.9c-5.5-9.3-4-17.3,10.9-26.1c14.3-8.4,22.9-5.5,28,3.2c5,8.5,3.5,17.7-10.8,26.1
			C478.9,314,471.2,311.1,465.9,301.9z M500,281.8c-2.9-4.9-7.6-6.3-19.5,0.7c-12.2,7.2-12.9,11.5-9.8,16.6
			c2.7,4.6,7.2,6.6,19.3-0.5C502,291.5,502.7,286.3,500,281.8z"></path>
		<path class="st1" d="M479.6,327.9l41.7-13.5l7.4,22.9l-5.5,1.8L518,323l-12,3.9l4.7,14.6l-5.5,1.8l-4.7-14.6l-13.2,4.2l5.6,17.3
			l-5.5,1.8L479.6,327.9z"></path>
	</g>
	<path class="st1" d="M306,640.4c-65.3,0-126.6-25.4-172.8-71.6C87,522.6,61.6,461.3,61.6,396S87,269.4,133.2,223.2
		s107.5-71.6,172.8-71.6s126.6,25.4,172.8,71.6c46.2,46.2,71.6,107.5,71.6,172.8S525,522.6,478.8,568.8
		C432.6,615,371.3,640.4,306,640.4z M306,155.9c-64.1,0-124.4,25-169.8,70.3S65.9,331.9,65.9,396c0,64.1,25,124.4,70.3,169.8
		c45.4,45.4,105.7,70.3,169.8,70.3c64.1,0,124.4-25,169.8-70.3c45.4-45.4,70.3-105.7,70.3-169.8c0-64.1-25-124.4-70.3-169.8
		C430.4,180.8,370.1,155.9,306,155.9z"></path>
	<path class="st1" d="M306,613.6c-58.1,0-112.8-22.6-153.9-63.7C111,508.8,88.4,454.1,88.4,396c0-1.2,1-2.1,2.1-2.1s2.1,1,2.1,2.1
		c0,117.6,95.7,213.4,213.4,213.4c117.6,0,213.4-95.7,213.4-213.4c0-1.2,1-2.1,2.1-2.1s2.1,1,2.1,2.1c0,58.1-22.6,112.8-63.7,153.9
		C418.8,591,364.1,613.6,306,613.6z"></path>
	<path class="st1" d="M306,626.4c-61.5,0-119.4-24-162.9-67.5C99.6,515.4,75.6,457.5,75.6,396c0-1.2,1-2.1,2.1-2.1s2.1,1,2.1,2.1
		c0,60.4,23.5,117.2,66.2,159.9c42.7,42.7,99.5,66.2,159.9,66.2s117.2-23.5,159.9-66.2c42.7-42.7,66.2-99.5,66.2-159.9
		c0-1.2,1-2.1,2.1-2.1s2.1,1,2.1,2.1c0,61.5-24,119.4-67.5,162.9C425.4,602.4,367.5,626.4,306,626.4z"></path>
	<path class="st1" d="M306,600.9c-113,0-204.9-91.9-204.9-204.9c0-1.2,1-2.1,2.1-2.1s2.1,1,2.1,2.1c0,110.6,90,200.6,200.6,200.6
		c110.6,0,200.6-90,200.6-200.6c0-1.2,1-2.1,2.1-2.1s2.1,1,2.1,2.1C510.9,509,419,600.9,306,600.9z"></path>
	<path class="st1" d="M306,586.8c-105.2,0-190.8-85.6-190.8-190.8c0-1.2,1-2.1,2.1-2.1s2.1,1,2.1,2.1
		c0,102.9,83.7,186.6,186.6,186.6c102.9,0,186.6-83.7,186.6-186.6c0-1.2,1-2.1,2.1-2.1s2.1,1,2.1,2.1
		C496.8,501.2,411.2,586.8,306,586.8z"></path>
	<g>
		<path class="st0" d="M306.5,402.1c36.9,0,102.7-5.6,127.3-8.9c21.3-2.9,15.6-29,15.6-29s-45.8,15.6-142.9,15.6H306
			c-97.2,0-142.9-15.6-142.9-15.6s-5.6,26.1,15.6,29c24.6,3.4,90.5,8.9,127.3,8.9H306.5z"></path>
		<path class="st1" d="M306.5,404.2H306c-38.4,0-104.4-5.8-127.6-9c-6.1-0.8-10.8-3.5-13.9-7.9c-6.5-9.3-3.7-23.1-3.5-23.6
			c0.1-0.6,0.5-1.1,1-1.4c0.5-0.3,1.2-0.4,1.7-0.2c0.1,0,11.7,3.9,34.9,7.8c21.4,3.5,57.4,7.8,107.4,7.8h0.4
			c49.9,0,86-4.2,107.4-7.8c23.2-3.8,34.8-7.7,34.9-7.8c0.6-0.2,1.2-0.1,1.7,0.2c0.5,0.3,0.9,0.8,1,1.4c0.1,0.6,3,14.3-3.5,23.6
			c-3.1,4.4-7.8,7.1-13.9,7.9C410.9,398.4,344.9,404.2,306.5,404.2z M164.8,366.9c-0.5,4-0.8,12.3,3.2,18c2.4,3.4,6.1,5.5,11,6.2
			c23,3.1,88.8,8.9,127,8.9h0.4c38.2,0,104-5.8,127-8.9c4.9-0.7,8.6-2.7,11-6.2c4-5.8,3.7-14,3.2-18c-10.7,3.1-57,15-141.2,15H306
			c-50.3,0-86.6-4.3-108.2-7.8C180.1,371.1,169.3,368.2,164.8,366.9z"></path>
	</g>
	<g>
		<path class="st1" d="M133.8,396.6c0,95.4,77.4,172.8,172.8,172.8S479.4,492,479.4,396.6c0,0-10.8,0-10.8-10.8
			c0,10.8-10.8,10.8-10.8,10.8s-10.8,0-10.8-10.8c0,10.8-10.8,10.8-10.8,10.8s-10.8,0-10.8-10.8c0,10.8-10.8,10.8-10.8,10.8
			s-10.8,0-10.8-10.8c0,10.8-10.8,10.8-10.8,10.8s-10.8,0-10.8-10.8c0,10.8-10.8,10.8-10.8,10.8s-10.8,0-10.8-10.8
			c0,10.8-10.8,10.8-10.8,10.8s-10.8,0-10.8-10.8c0,10.8-10.8,10.8-10.8,10.8s-10.8,0-10.8-10.8c0,10.8-10.8,10.8-10.8,10.8
			s-10.8,0-10.8-10.8c0,10.8-10.8,10.8-10.8,10.8s-10.8,0-10.8-10.8c0,10.8-10.8,10.8-10.8,10.8s-10.8,0-10.8-10.8
			c0,10.8-10.8,10.8-10.8,10.8s-10.8,0-10.8-10.8c0,10.8-10.8,10.8-10.8,10.8s-10.8,0-10.8-10.8c0,10.8-10.8,10.8-10.8,10.8
			s-10.8,0-10.8-10.8c0,10.8-10.8,10.8-10.8,10.8s-10.8,0-10.8-10.8c0,10.8-10.8,10.8-10.8,10.8s-10.8,0-10.8-10.8
			C144.6,396.6,133.8,396.6,133.8,396.6z"></path>
		<path class="st1" d="M306.6,571.5c-96.5,0-174.9-78.5-174.9-174.9c0-1.2,0.9-2.1,2.1-2.1l0,0c0.9,0,8.7-0.3,8.7-8.7
			c0-1.2,1-2.1,2.1-2.1s2.1,1,2.1,2.1c0,8.4,7.8,8.7,8.7,8.7c0.9,0,8.7-0.3,8.7-8.7c0-1.2,1-2.1,2.1-2.1s2.1,1,2.1,2.1
			c0,8.4,7.8,8.7,8.7,8.7c0.9,0,8.7-0.3,8.7-8.7c0-1.2,1-2.1,2.1-2.1s2.1,1,2.1,2.1c0,8.4,7.8,8.7,8.7,8.7c0.9,0,8.7-0.3,8.7-8.7
			c0-1.2,1-2.1,2.1-2.1s2.1,1,2.1,2.1c0,8.6,8.3,8.7,8.7,8.7c0.9,0,8.7-0.3,8.7-8.7c0-1.2,1-2.1,2.1-2.1s2.1,1,2.1,2.1
			c0,8.6,8.3,8.7,8.7,8.7c0.9,0,8.7-0.3,8.7-8.7c0-1.2,1-2.1,2.1-2.1s2.1,1,2.1,2.1c0,8.6,8.3,8.7,8.7,8.7c0.9,0,8.7-0.3,8.7-8.7
			c0-1.2,1-2.1,2.1-2.1s2.1,1,2.1,2.1c0,8.6,8.3,8.7,8.7,8.7c0.9,0,8.7-0.3,8.7-8.7c0-1.2,1-2.1,2.1-2.1s2.1,1,2.1,2.1
			c0,8.6,8.3,8.7,8.7,8.7c0.9,0,8.7-0.3,8.7-8.7c0-1.2,1-2.1,2.1-2.1s2.1,1,2.1,2.1c0,8.6,8.3,8.7,8.7,8.7c0.9,0,8.7-0.3,8.7-8.7
			c0-1.2,1-2.1,2.1-2.1s2.1,1,2.1,2.1c0,8.6,8.3,8.7,8.7,8.7c0.9,0,8.7-0.3,8.7-8.7c0-1.2,1-2.1,2.1-2.1s2.1,1,2.1,2.1
			c0,8.6,8.3,8.7,8.7,8.7c0.9,0,8.7-0.3,8.7-8.7c0-1.2,1-2.1,2.1-2.1s2.1,1,2.1,2.1c0,8.6,8.3,8.7,8.7,8.7c0.9,0,8.7-0.3,8.7-8.7
			c0-1.2,1-2.1,2.1-2.1s2.1,1,2.1,2.1c0,8.6,8.3,8.7,8.7,8.7c0.9,0,8.7-0.3,8.7-8.7c0-1.2,1-2.1,2.1-2.1s2.1,1,2.1,2.1
			c0,8.6,8.3,8.7,8.7,8.7c0.9,0,8.7-0.3,8.7-8.7c0-1.2,1-2.1,2.1-2.1s2.1,1,2.1,2.1c0,8.6,8.3,8.7,8.7,8.7c0.9,0,8.7-0.3,8.7-8.7
			c0-1.2,1-2.1,2.1-2.1s2.1,1,2.1,2.1c0,8.6,8.3,8.7,8.7,8.7c1.2,0,2.1,1,2.1,2.1C481.5,493.1,403.1,571.5,306.6,571.5z
			 M135.9,398.5c1,93.2,77.2,168.7,170.7,168.7s169.6-75.5,170.7-168.7c-2.9-0.5-6.4-1.9-8.7-5.2c-2.8,4.1-7.7,5.4-10.8,5.4
			c-3.1,0-8-1.3-10.8-5.3c-3.6,5.3-10.7,5.3-10.8,5.3c-3.1,0-8-1.3-10.8-5.4c-2.8,4.1-7.7,5.4-10.8,5.4c-3.1,0-8-1.3-10.8-5.3
			c-3.6,5.3-10.7,5.3-10.8,5.3c-3.1,0-8-1.3-10.8-5.4c-2.8,4.1-7.7,5.4-10.8,5.4c-3.1,0-8-1.3-10.8-5.3c-3.6,5.3-10.7,5.3-10.8,5.3
			c-3.1,0-8-1.3-10.8-5.4c-2.8,4.1-7.7,5.4-10.8,5.4c-3.1,0-8-1.3-10.8-5.3c-3.6,5.3-10.7,5.3-10.8,5.3c-3.1,0-8-1.3-10.8-5.3
			c-3.6,5.3-10.7,5.3-10.8,5.3c-3.1,0-8-1.3-10.8-5.3c-3.6,5.3-10.7,5.3-10.8,5.3c-3.1,0-8-1.3-10.8-5.3c-3.6,5.3-10.7,5.3-10.8,5.3
			c-3.1,0-8-1.3-10.8-5.3c-3.6,5.3-10.7,5.3-10.8,5.3c-3.1,0-8-1.3-10.8-5.4c-2.8,4.1-7.7,5.4-10.8,5.4c-0.1,0-7.2-0.1-10.8-5.3
			c-2.8,4.1-7.7,5.3-10.8,5.3c-0.1,0-7.2-0.1-10.8-5.3c-2.8,4.1-7.7,5.3-10.8,5.3c-0.1,0-7.2-0.1-10.8-5.3
			C142.4,396.6,138.8,398.1,135.9,398.5z"></path>
	</g>
	<g>
		<path class="st0" d="M273.3,421l88.3-89.2c0.4-0.4,0.4-1.2,0-1.6l0,0c-0.4-0.4-0.4-1.2,0-1.6l2.4-2.4c0.4-0.4,1.2-0.4,1.6,0
			l5.6,5.6c0.4,0.4,0.4,1.2,0,1.6l-2.4,2.4c-0.4,0.4-1.2,0.4-1.6,0l0,0c-0.4-0.4-1.2-0.4-1.6,0L277.3,425c0,0,4,4-4,12l-24,24
			l-12-12c0,0,16-16,24-24C269.3,417,273.3,421,273.3,421z"></path>
		<path class="st1" d="M364.8,325.9c0.3,0,0.6,0.1,0.8,0.3l5.6,5.6c0.4,0.4,0.4,1.2,0,1.6l-2.4,2.4c-0.2,0.2-0.5,0.3-0.8,0.3
			s-0.6-0.1-0.8-0.3s-0.5-0.3-0.8-0.3c-0.3,0-0.6,0.1-0.8,0.3L277.3,425c0,0,4,4-4,12l-24,24l-12-12c0,0,16-16,24-24c4-4,7-5,9-5
			c2,0,3,1,3,1l88.3-89.2c0.4-0.4,0.4-1.2,0-1.6l0,0c-0.4-0.4-0.4-1.2,0-1.6l2.4-2.4C364.2,326,364.5,325.9,364.8,325.9
			 M364.8,321.6c-1.4,0-2.8,0.6-3.8,1.6l-2.4,2.4c-1.3,1.3-1.8,3.1-1.5,4.7l-84.8,85.6c-0.6-0.1-1.3-0.2-2-0.2
			c-3.8,0-7.9,2.1-12,6.2l-24,24l-3,3l3,3l12,12l3,3l3-3l24-24c6.1-6.1,6.7-10.9,6-14l84.8-85.6c0.3,0,0.6,0.1,0.9,0.1
			c1.4,0,2.8-0.6,3.8-1.6l2.4-2.4c2.1-2.1,2.1-5.5,0-7.6l-5.6-5.6C367.6,322.2,366.3,321.6,364.8,321.6L364.8,321.6z"></path>
	</g>
	<g>
		<path class="st0" d="M334.9,425l-89.2-88.3c-0.4-0.4-1.2-0.4-1.6,0l0,0c-0.4,0.4-1.2,0.4-1.6,0l-2.4-2.4c-0.4-0.4-0.4-1.2,0-1.6
			l5.6-5.6c0.4-0.4,1.2-0.4,1.6,0l2.4,2.4c0.4,0.4,0.4,1.2,0,1.6l0,0c-0.4,0.4-0.4,1.2,0,1.6l89.2,88.3c0,0,4-4,12,4l24,24l-12,12
			c0,0-16-16-24-24S334.9,425,334.9,425z"></path>
		<path class="st1" d="M246.5,326.8c0.3,0,0.6,0.1,0.8,0.3l2.4,2.4c0.4,0.4,0.4,1.2,0,1.6c-0.4,0.4-0.4,1.2,0,1.6l89.2,88.3
			c0,0,1-1,3-1c2,0,5,1,9,5l24,24l-12,12c0,0-16-16-24-24s-4-12-4-12l-89.2-88.3c-0.2-0.2-0.5-0.3-0.8-0.3c-0.3,0-0.6,0.1-0.8,0.3
			l0,0c-0.2,0.2-0.5,0.3-0.8,0.3c-0.3,0-0.6-0.1-0.8-0.3l-2.4-2.4c-0.4-0.4-0.4-1.2,0-1.6l5.6-5.6
			C245.9,326.9,246.2,326.8,246.5,326.8 M246.5,322.5c-1.4,0-2.8,0.6-3.8,1.6l-5.6,5.6c-1,1-1.6,2.4-1.6,3.8c0,1.4,0.6,2.8,1.6,3.8
			l2.4,2.4c1,1,2.4,1.6,3.8,1.6c0.3,0,0.6,0,0.9-0.1l85.6,84.8c-0.7,3.1,0,7.9,6,14l24,24l3,3l3-3l12-12l3-3l-3-3l-24-24
			c-4.1-4.1-8.2-6.2-12-6.2c-0.7,0-1.4,0.1-2,0.2l-85.6-84.8c0.3-1.7-0.2-3.4-1.5-4.7l-2.4-2.4C249.3,323.1,247.9,322.5,246.5,322.5
			L246.5,322.5z"></path>
	</g>
	<g>
		<g>
			<circle class="st0" cx="306.6" cy="287" r="24.9"></circle>
			<path class="st1" d="M306.6,314c-14.9,0-27-12.1-27-27s12.1-27,27-27s27,12.1,27,27S321.5,314,306.6,314z M306.6,264.2
				c-12.5,0-22.7,10.2-22.7,22.7s10.2,22.7,22.7,22.7s22.7-10.2,22.7-22.7S319.2,264.2,306.6,264.2z"></path>
		</g>
		<path class="st1" d="M306.6,233.8c-1.9,0-3.8,0.1-5.7,0.3l3,28.2c0.7-0.1,1.4-0.1,2.1-0.1c0,0,0,0,0,0c0,0,0,0,0,0c0,0,0,0,0,0
			c0,0,0,0,0,0c0,0,0,0,0,0c0,0,0,0,0,0c0,0,0,0,0,0c0,0,0,0,0,0c0,0,0,0,0,0c0,0,0,0,0,0c0,0,0,0,0,0c0,0,0,0,0,0c0,0,0,0,0,0
			c0,0,0,0,0,0c0,0,0,0,0,0c0,0,0,0,0,0c0,0,0,0,0,0c0,0,0,0,0,0c0,0,0,0,0,0c0,0,0,0,0,0c0,0,0,0,0,0c0,0,0,0,0,0c0,0,0,0,0,0
			c0,0,0,0,0,0c0,0,0,0,0,0c0,0,0,0,0,0c0,0,0,0,0,0c0,0,0,0,0,0l0,0V233.8L306.6,233.8z M295.2,235c-1.9,0.4-3.8,0.9-5.6,1.5
			l9,26.9c0.1,0,0.3-0.1,0.4-0.1c0,0,0,0,0,0c0,0,0,0,0,0c0,0,0,0,0,0c0,0,0,0,0,0c0,0,0,0,0,0c0,0,0,0,0,0c0,0,0,0,0,0c0,0,0,0,0,0
			c0,0,0,0,0,0c0,0,0,0,0,0c0,0,0,0,0,0c0,0,0,0,0,0c0.4-0.1,0.8-0.2,1.2-0.3c0,0,0,0,0,0c0,0,0,0,0,0c0,0,0,0,0,0c0,0,0,0,0,0
			c0,0,0,0,0,0c0,0,0,0,0,0c0,0,0,0,0,0c0,0,0.1,0,0.1,0c0,0,0,0,0,0c0,0,0,0,0,0c0,0,0,0,0,0c0,0,0,0,0,0c0,0,0,0,0,0c0,0,0,0,0,0
			c0,0,0,0,0,0c0,0,0,0,0,0c0,0,0,0,0,0c0,0,0,0,0,0c0,0,0,0,0,0c0,0,0,0,0,0c0,0,0,0,0,0c0,0,0,0,0,0c0,0,0,0,0,0c0,0,0,0,0,0
			c0.1,0,0.1,0,0.2,0L295.2,235L295.2,235z M284.3,238.7c-1.7,0.8-3.5,1.7-5.1,2.7l14.6,24.3c0,0,0,0,0,0c0,0,0,0,0,0c0,0,0,0,0,0
			c0,0,0,0,0,0c0,0,0,0,0,0c0,0,0,0,0,0c0,0,0.1,0,0.1-0.1c0,0,0,0,0,0c0,0,0,0,0,0c0,0,0,0,0,0c0,0,0,0,0,0c0,0,0,0,0,0
			c0,0,0,0,0,0c0,0,0,0,0,0c0,0,0,0,0,0c0,0,0,0,0,0c0,0,0,0,0,0c0,0,0,0,0,0c0,0,0,0,0,0c0,0,0,0,0,0c0,0,0,0,0,0c0,0,0,0,0,0
			c0,0,0,0,0,0c0,0,0,0,0,0c0,0,0,0,0,0c0,0,0,0,0,0c0,0,0,0,0,0c0,0,0,0,0,0c0,0,0,0,0,0c0,0,0,0,0,0c0,0,0,0,0,0c0,0,0,0,0,0
			c0,0,0,0,0,0c0,0,0,0,0,0c0,0,0,0,0,0c0,0,0,0,0,0c0,0,0,0,0,0c0.1,0,0.1-0.1,0.2-0.1c0,0,0,0,0,0c0.5-0.3,1-0.5,1.5-0.8
			L284.3,238.7L284.3,238.7z M274.4,244.6c-1.5,1.2-3,2.4-4.4,3.7l19.5,20.6c0.3-0.3,0.6-0.6,1-0.9c0,0,0,0,0,0c0,0,0,0,0,0l0,0
			c0,0,0,0,0,0l0,0c0.1,0,0.1-0.1,0.2-0.1c0,0,0,0,0,0c0,0,0,0,0,0c0,0,0,0,0,0c0,0,0,0,0,0c0,0,0,0,0,0c0,0,0,0,0,0l0,0
			c0.2-0.2,0.5-0.4,0.7-0.6L274.4,244.6L274.4,244.6z M266.1,252.5c-1.2,1.5-2.4,3-3.5,4.6l23.4,15.9c0.1-0.2,0.3-0.4,0.4-0.6
			c0,0,0,0,0,0c0.3-0.4,0.5-0.7,0.8-1.1c0,0,0,0,0,0c0,0,0,0,0,0c0,0,0,0,0,0c0,0,0,0,0,0c0,0,0,0,0,0c0,0,0,0,0,0c0,0,0,0,0,0
			c0,0,0,0,0.1-0.1c0,0,0,0,0,0c0,0,0,0,0,0c0,0,0,0,0,0c0,0,0,0,0,0c0,0,0,0,0,0c0,0,0,0,0,0c0,0,0,0,0,0c0,0,0,0,0,0
			c0-0.1,0.1-0.1,0.1-0.2L266.1,252.5L266.1,252.5z M259.7,262c-0.9,1.7-1.7,3.5-2.4,5.2l26.3,10.5c0.1-0.2,0.2-0.5,0.3-0.7
			c0,0,0,0,0,0c0,0,0,0,0,0c0,0,0,0,0,0c0,0,0,0,0,0c0,0,0,0,0,0c0,0,0,0,0,0c0,0,0,0,0,0c0,0,0,0,0,0c0,0,0,0,0,0c0,0,0,0,0,0
			c0,0,0,0,0,0c0,0,0,0,0,0c0,0,0,0,0,0c0,0,0,0,0,0c0,0,0,0,0,0c0,0,0,0,0,0c0,0,0,0,0,0c0,0,0,0,0,0c0,0,0,0,0,0c0,0,0,0,0,0
			c0,0,0,0,0,0c0,0,0,0,0,0c0,0,0,0,0,0c0,0,0,0,0,0c0,0,0,0,0,0c0,0,0,0,0,0c0.2-0.4,0.4-0.8,0.6-1.2L259.7,262L259.7,262z
			 M255.4,272.7c-0.5,1.8-0.9,3.7-1.2,5.6l28,4.6c0.1-0.9,0.3-1.8,0.6-2.6L255.4,272.7L255.4,272.7z M253.5,284.1
			c-0.1,1-0.1,1.9-0.1,2.9c0,0.9,0,1.9,0.1,2.8l28.3-1.5c0,0,0-0.1,0-0.1c0,0,0,0,0,0c0,0,0,0,0,0c0,0,0,0,0,0c0,0,0,0,0,0
			c0,0,0,0,0,0c0,0,0,0,0,0c0,0,0,0,0,0c0,0,0,0,0,0c0,0,0,0,0,0c0,0,0,0,0,0c0,0,0,0,0,0c0,0,0,0,0,0c0-0.2,0-0.3,0-0.5
			c0,0,0,0,0,0c0,0,0,0,0,0c0,0,0,0,0,0c0,0,0,0,0,0c0,0,0,0,0,0c0,0,0,0,0,0c0,0,0,0,0,0c0,0,0,0,0,0c0,0,0,0,0,0c0,0,0,0,0,0
			c0,0,0,0,0,0c0,0,0,0,0,0c0,0,0,0,0,0c0,0,0,0,0,0c0,0,0,0,0,0c0,0,0,0,0,0c0,0,0,0,0,0c0,0,0,0,0,0c0,0,0,0,0,0c0,0,0,0,0,0
			c0,0,0,0,0,0c0,0,0,0,0,0c0,0,0,0,0,0c0,0,0,0,0,0l0,0l0,0l0,0c0,0,0,0,0,0c0,0,0,0,0,0c0,0,0,0,0,0c0,0,0,0,0,0c0,0,0,0,0,0
			c0,0,0,0,0,0c0,0,0,0,0,0c0,0,0,0,0,0c0,0,0,0,0,0c0,0,0,0,0,0c0,0,0,0,0,0c0,0,0,0,0,0c0,0,0,0,0,0c0,0,0,0,0,0c0,0,0,0,0,0
			c0,0,0,0,0,0c0,0,0,0,0,0c0,0,0,0,0,0c0,0,0,0,0,0c0,0,0,0,0,0c0,0,0,0,0,0c0-0.1,0-0.2,0-0.3v0c0,0,0,0,0,0c0,0,0,0,0,0
			c0,0,0,0,0,0c0,0,0,0,0,0c0,0,0,0,0,0c0,0,0,0,0,0c0,0,0,0,0,0c0,0,0,0,0,0c0,0,0,0,0,0c0,0,0,0,0,0c0,0,0,0,0,0c0,0,0,0,0,0
			c0,0,0,0,0,0c0,0,0,0,0,0c0,0,0,0,0,0c0,0,0,0,0,0c0,0,0,0,0,0c0-0.1,0-0.2,0-0.3L253.5,284.1L253.5,284.1z M282.1,291l-28,4.5
			c0.3,1.9,0.7,3.8,1.2,5.6l27.3-7.5c-0.1-0.5-0.3-1-0.4-1.5l0,0c0,0,0,0,0,0c0,0,0,0,0,0c0,0,0,0,0,0c0,0,0,0,0,0c0,0,0,0,0,0
			c0,0,0,0,0,0c0,0,0,0,0,0c0,0,0,0,0,0c0,0,0,0,0,0c0,0,0,0,0,0c0,0,0,0,0,0c0,0,0,0,0,0c0,0,0,0,0,0c0,0,0,0,0,0c0,0,0,0,0,0
			c0,0,0,0,0,0c0,0,0,0,0,0c0,0,0,0,0,0c0,0,0,0,0,0c0,0,0,0,0,0c0,0,0,0,0,0c0,0,0,0,0,0c0,0,0,0,0,0c0,0,0,0,0,0c0,0,0,0,0,0
			c0,0,0,0,0,0c0,0,0,0,0,0c0,0,0,0,0,0c0,0,0,0,0,0c0,0,0,0,0,0c0,0,0,0,0,0C282.1,291.3,282.1,291.1,282.1,291L282.1,291z
			 M283.5,296.2l-26.3,10.5c0.7,1.8,1.5,3.5,2.4,5.2l25-13.3c-0.1-0.2-0.2-0.4-0.3-0.7c0,0,0,0,0,0c0,0,0,0,0,0c0,0,0,0,0,0
			c0,0,0,0,0,0c0,0,0,0,0,0c0,0,0,0,0,0c0,0,0,0,0,0c0,0,0,0,0,0c0,0,0,0,0,0c0,0,0,0,0,0c0,0,0,0,0,0c0,0,0,0,0,0
			C284,297.2,283.7,296.7,283.5,296.2L283.5,296.2z M286,300.9l-23.5,15.9c1.1,1.6,2.2,3.1,3.5,4.6l21.6-18.3
			c-0.1-0.1-0.1-0.1-0.2-0.2c0,0,0,0,0,0c0,0,0,0,0,0c0,0,0,0,0,0c0,0,0,0,0,0c0,0,0,0,0,0c0,0,0,0,0,0c0,0,0,0,0,0c0,0,0,0,0,0
			c0,0,0,0,0,0c0,0,0,0,0,0c0,0,0,0,0,0c0,0,0,0,0,0c0,0-0.1-0.1-0.1-0.1c0,0,0,0,0,0c0,0,0,0,0,0c0,0,0,0,0,0
			C286.8,302,286.4,301.4,286,300.9L286,300.9z M289.5,305L270,325.5c1.4,1.3,2.9,2.6,4.4,3.7l17.2-22.5c-0.2-0.2-0.4-0.3-0.6-0.5
			l0,0c0,0,0,0,0,0c0,0,0,0,0,0c0,0,0,0,0,0c0,0,0,0,0,0c0,0,0,0,0,0c0,0,0,0,0,0c0,0,0,0,0,0c0,0,0,0,0,0c0,0,0,0,0,0c0,0,0,0,0,0
			c0,0,0,0,0,0c0,0,0,0,0,0c0,0,0,0,0,0c0,0,0,0,0,0c0,0,0,0,0,0c0,0,0,0,0,0c0,0,0,0,0,0c0,0,0,0,0,0c0,0,0,0,0,0
			C290.2,305.7,289.9,305.3,289.5,305L289.5,305z M293.8,308.3l-14.7,24.2c1.6,1,3.4,1.9,5.1,2.7l12-25.7c-0.2-0.1-0.4-0.2-0.6-0.3
			c0,0,0,0,0,0c0,0,0,0,0,0c0,0,0,0,0,0c0,0,0,0,0,0c0,0,0,0,0,0c0,0,0,0,0,0c0,0,0,0,0,0c0,0,0,0,0,0c0,0,0,0,0,0c0,0,0,0,0,0
			c0,0,0,0-0.1,0c0,0,0,0,0,0c0,0,0,0,0,0c0,0,0,0,0,0c0,0,0,0,0,0c0,0,0,0,0,0c0,0,0,0,0,0c0,0,0,0,0,0c0,0,0,0,0,0c0,0,0,0,0,0
			c0,0,0,0,0,0c0,0,0,0,0,0c-0.1,0-0.2-0.1-0.2-0.1l0,0c0,0,0,0,0,0c0,0,0,0,0,0c0,0,0,0,0,0c0,0,0,0,0,0c-0.1,0-0.1-0.1-0.2-0.1
			c0,0,0,0,0,0c0,0,0,0,0,0c0,0,0,0,0,0c0,0,0,0,0,0c0,0,0,0,0,0c0,0,0,0,0,0c0,0,0,0,0,0c0,0,0,0,0,0c0,0,0,0,0,0c0,0,0,0,0,0
			c0,0,0,0,0,0c0,0,0,0,0,0c0,0,0,0,0,0c0,0,0,0,0,0c0,0,0,0,0,0c0,0,0,0,0,0c0,0,0,0,0,0c0,0,0,0,0,0c0,0,0,0,0,0c0,0,0,0,0,0
			c0,0,0,0,0,0c0,0,0,0,0,0c0,0,0,0,0,0c0,0,0,0,0,0C294.1,308.4,293.9,308.4,293.8,308.3L293.8,308.3z M298.6,310.5l-9.1,26.8
			c1.8,0.6,3.7,1.1,5.6,1.6l6.1-27.7c-0.5-0.1-0.9-0.2-1.4-0.3c0,0,0,0,0,0c0,0,0,0,0,0c0,0,0,0,0,0c0,0,0,0,0,0c0,0,0,0,0,0
			c0,0,0,0,0,0c0,0,0,0,0,0c-0.1,0-0.1,0-0.2,0c0,0,0,0,0,0c0,0,0,0,0,0c0,0,0,0,0,0c0,0,0,0,0,0c0,0,0,0,0,0c0,0,0,0,0,0
			c0,0,0,0,0,0c0,0,0,0,0,0c0,0,0,0,0,0c0,0,0,0,0,0c0,0,0,0,0,0c0,0,0,0,0,0c0,0,0,0,0,0c0,0,0,0,0,0c0,0,0,0,0,0c0,0,0,0,0,0
			c0,0-0.1,0-0.1,0l0,0c0,0,0,0,0,0c0,0,0,0,0,0c0,0,0,0,0,0c0,0,0,0,0,0c0,0,0,0,0,0c0,0,0,0,0,0c0,0,0,0,0,0c0,0,0,0,0,0
			c0,0,0,0,0,0c0,0,0,0,0,0c0,0,0,0,0,0c0,0,0,0,0,0c0,0,0,0,0,0c0,0,0,0,0,0c0,0,0,0,0,0c0,0,0,0,0,0
			C298.9,310.6,298.8,310.6,298.6,310.5C298.7,310.6,298.7,310.6,298.6,310.5C298.7,310.6,298.7,310.6,298.6,310.5
			C298.7,310.6,298.7,310.6,298.6,310.5C298.7,310.5,298.7,310.5,298.6,310.5C298.7,310.5,298.7,310.5,298.6,310.5
			C298.7,310.5,298.7,310.5,298.6,310.5L298.6,310.5z M303.9,311.7l-3.1,28.2c1.9,0.2,3.8,0.3,5.7,0.3l0.1-28.3c0,0-0.1,0-0.1,0
			c0,0,0,0,0,0c0,0,0,0,0,0c0,0,0,0,0,0c0,0,0,0,0,0c0,0,0,0,0,0c0,0,0,0,0,0c0,0,0,0,0,0c0,0,0,0,0,0c0,0,0,0,0,0c0,0,0,0,0,0
			c0,0,0,0,0,0c-0.1,0-0.1,0-0.2,0c0,0,0,0,0,0c0,0,0,0,0,0c0,0,0,0,0,0c0,0,0,0,0,0c0,0,0,0,0,0c0,0,0,0,0,0c0,0,0,0,0,0
			c0,0,0,0,0,0c0,0,0,0,0,0c0,0,0,0,0,0c0,0,0,0,0,0c0,0,0,0,0,0c0,0,0,0,0,0c0,0,0,0,0,0c0,0,0,0,0,0c0,0,0,0,0,0c0,0,0,0,0,0
			c0,0,0,0,0,0c0,0,0,0,0,0c0,0,0,0,0,0c0,0,0,0,0,0c0,0,0,0,0,0c0,0,0,0,0,0c0,0,0,0,0,0c0,0,0,0,0,0c0,0,0,0,0,0c0,0,0,0,0,0
			c0,0,0,0,0,0c0,0,0,0,0,0c0,0,0,0,0,0c0,0,0,0,0,0c0,0,0,0,0,0c0,0,0,0,0,0c0,0,0,0,0,0c0,0,0,0,0,0c0,0,0,0,0,0c0,0,0,0,0,0
			c0,0,0,0,0,0c0,0,0,0,0,0c0,0,0,0,0,0c0,0,0,0,0,0c0,0,0,0,0,0c0,0,0,0,0,0c0,0,0,0,0,0c0,0,0,0,0,0c0,0,0,0,0,0c0,0,0,0,0,0
			c0,0,0,0,0,0c0,0,0,0,0,0c0,0,0,0,0,0c0,0,0,0,0,0c0,0,0,0,0,0c0,0,0,0,0,0c0,0,0,0,0,0c0,0,0,0,0,0c0,0,0,0,0,0c0,0,0,0,0,0
			c0,0,0,0,0,0c0,0,0,0,0,0c0,0,0,0,0,0c0,0,0,0,0,0c-0.1,0-0.2,0-0.2,0c0,0,0,0,0,0c0,0,0,0,0,0c0,0,0,0,0,0c0,0,0,0,0,0
			c0,0,0,0,0,0c0,0,0,0,0,0c0,0,0,0,0,0c0,0,0,0,0,0c0,0,0,0,0,0c0,0,0,0,0,0c0,0,0,0,0,0c0,0,0,0,0,0c0,0,0,0,0,0c0,0,0,0,0,0
			c0,0,0,0,0,0c0,0,0,0,0,0c0,0,0,0,0,0C304.1,311.7,304,311.7,303.9,311.7L303.9,311.7z M311.9,311.3c-0.3,0.1-0.5,0.1-0.8,0.2
			c0,0,0,0,0,0c0,0,0,0,0,0c0,0,0,0,0,0c0,0,0,0,0,0c0,0,0,0,0,0c0,0,0,0,0,0c0,0,0,0,0,0c0,0,0,0,0,0c0,0,0,0,0,0c0,0,0,0,0,0
			c0,0,0,0,0,0c0,0,0,0,0,0c0,0,0,0,0,0c0,0,0,0,0,0c0,0,0,0,0,0c0,0,0,0,0,0c0,0,0,0,0,0c0,0,0,0,0,0c0,0,0,0,0,0c0,0,0,0,0,0
			c0,0,0,0,0,0c0,0,0,0,0,0c0,0,0,0,0,0c0,0,0,0,0,0c0,0,0,0,0,0c0,0,0,0,0,0c0,0,0,0,0,0c0,0,0,0,0,0c0,0,0,0,0,0c0,0,0,0,0,0
			c0,0,0,0,0,0c0,0,0,0,0,0c0,0,0,0,0,0c0,0,0,0,0,0c0,0,0,0,0,0c0,0,0,0,0,0c0,0,0,0,0,0c0,0,0,0,0,0c-0.1,0-0.2,0-0.3,0
			c0,0,0,0,0,0c0,0,0,0,0,0c0,0,0,0,0,0c0,0,0,0,0,0c0,0,0,0,0,0c0,0,0,0,0,0c0,0,0,0,0,0c0,0,0,0,0,0c0,0,0,0,0,0c0,0,0,0,0,0
			c0,0,0,0,0,0c-0.1,0-0.2,0-0.2,0c0,0,0,0,0,0c0,0,0,0,0,0c0,0,0,0,0,0c0,0,0,0,0,0c0,0,0,0,0,0c0,0,0,0,0,0c0,0,0,0,0,0
			c0,0,0,0,0,0c0,0,0,0,0,0c0,0,0,0,0,0c0,0,0,0,0,0c0,0,0,0,0,0c0,0,0,0,0,0c0,0,0,0,0,0c0,0,0,0-0.1,0l3,28.2
			c1.9-0.2,3.8-0.5,5.7-0.9L311.9,311.3L311.9,311.3z M317,309.6C317,309.6,317,309.6,317,309.6C317,309.6,317,309.6,317,309.6
			C317,309.6,317,309.6,317,309.6C317,309.6,317,309.6,317,309.6C316.9,309.6,316.9,309.6,317,309.6c-0.1,0.1-0.2,0.1-0.2,0.1
			c0,0,0,0,0,0c0,0,0,0,0,0c0,0,0,0,0,0c0,0,0,0,0,0c0,0,0,0,0,0c0,0,0,0,0,0c0,0,0,0,0,0c0,0,0,0,0,0c0,0,0,0,0,0c0,0,0,0,0,0
			c0,0,0,0,0,0c-0.1,0-0.2,0.1-0.2,0.1c0,0,0,0,0,0c0,0,0,0,0,0c0,0,0,0,0,0c-0.1,0-0.2,0.1-0.3,0.1c0,0,0,0,0,0c0,0,0,0,0,0
			c0,0,0,0,0,0c-0.1,0-0.2,0.1-0.3,0.1c0,0,0,0,0,0c0,0,0,0,0,0c0,0,0,0,0,0c0,0,0,0,0,0c0,0,0,0,0,0c0,0,0,0,0,0c0,0,0,0,0,0
			c-0.1,0-0.1,0.1-0.2,0.1c0,0,0,0,0,0c0,0,0,0,0,0c0,0,0,0,0,0c0,0,0,0,0,0c0,0,0,0,0,0c0,0,0,0,0,0c0,0,0,0,0,0c0,0,0,0,0,0
			c0,0,0,0,0,0c0,0,0,0,0,0c0,0,0,0,0,0c-0.1,0-0.1,0-0.2,0.1c0,0,0,0,0,0c0,0,0,0,0,0c0,0,0,0,0,0c0,0,0,0,0,0c0,0,0,0,0,0
			c0,0,0,0,0,0c0,0,0,0,0,0c0,0,0,0,0,0c0,0,0,0,0,0c0,0,0,0,0,0c0,0,0,0,0,0c0,0,0,0,0,0c0,0,0,0,0,0c0,0-0.1,0-0.1,0c0,0,0,0,0,0
			c0,0,0,0,0,0c0,0,0,0,0,0c0,0,0,0,0,0c0,0,0,0,0,0c0,0,0,0,0,0c0,0,0,0,0,0c0,0,0,0,0,0c0,0,0,0,0,0l9,26.9
			c1.8-0.6,3.6-1.3,5.4-2.1L317,309.6L317,309.6z M321.6,306.8c-0.1,0.1-0.2,0.1-0.3,0.2c0,0,0,0,0,0c0,0,0,0,0,0c0,0,0,0,0,0
			c0,0,0,0,0,0c0,0,0,0,0,0c0,0,0,0,0,0c0,0,0,0,0,0c0,0,0,0,0,0c0,0,0,0,0,0c0,0,0,0,0,0c0,0,0,0,0,0c0,0,0,0,0,0c0,0,0,0,0,0
			c0,0,0,0,0,0c0,0,0,0,0,0c0,0,0,0,0,0c0,0,0,0,0,0c0,0,0,0,0,0c0,0,0,0,0,0c0,0,0,0,0,0c0,0,0,0,0,0c0,0,0,0,0,0c0,0,0,0,0,0
			c0,0,0,0,0,0c0,0,0,0,0,0c0,0,0,0,0,0c0,0,0,0,0,0c0,0,0,0,0,0c0,0-0.1,0.1-0.1,0.1c0,0,0,0,0,0c0,0,0,0,0,0c0,0,0,0,0,0
			c0,0,0,0,0,0c0,0,0,0,0,0c0,0,0,0,0,0l0,0c-0.1,0.1-0.2,0.1-0.2,0.2l0,0c-0.1,0.1-0.2,0.1-0.2,0.2c0,0,0,0,0,0c0,0,0,0,0,0
			c0,0,0,0,0,0c0,0,0,0,0,0c0,0,0,0,0,0c0,0,0,0,0,0c0,0,0,0,0,0c0,0-0.1,0.1-0.1,0.1c0,0,0,0,0,0c0,0,0,0,0,0c0,0,0,0,0,0
			c0,0,0,0,0,0c0,0,0,0,0,0c0,0,0,0,0,0c0,0,0,0,0,0c0,0,0,0,0,0c0,0,0,0,0,0c0,0,0,0,0,0c0,0,0,0,0,0c0,0,0,0,0,0
			c-0.1,0.1-0.2,0.1-0.4,0.2l14.6,24.3c1.6-1,3.2-2.1,4.8-3.2L321.6,306.8L321.6,306.8z M325.5,303.1c-0.6,0.7-1.2,1.3-1.9,1.9
			l19.4,20.6c1.4-1.3,2.7-2.7,4-4.2L325.5,303.1L325.5,303.1z M328.6,298.7c0,0,0,0.1-0.1,0.1c0,0,0,0,0,0c0,0,0,0,0,0c0,0,0,0,0,0
			c0,0,0,0,0,0c0,0,0,0,0,0c0,0,0,0,0,0c0,0,0,0,0,0c0,0,0,0,0,0c0,0,0,0,0,0c0,0,0,0,0,0c0,0,0,0,0,0c0,0,0,0,0,0c0,0,0,0,0,0
			c0,0,0,0,0,0c0,0,0,0,0,0c0,0,0,0,0,0c0,0,0,0,0,0c0,0,0,0,0,0c0,0,0,0,0,0c0,0,0,0,0,0c0,0,0,0,0,0c0,0,0,0,0,0
			c-0.3,0.6-0.7,1.2-1.1,1.8l23.4,16c1.1-1.6,2.1-3.2,3-4.9L328.6,298.7L328.6,298.7z M330.6,293.7c-0.1,0.3-0.2,0.6-0.3,1l0,0
			c0,0,0,0,0,0l0,0c0,0,0,0,0,0c0,0,0,0,0,0c0,0,0,0,0,0c0,0,0,0,0,0c0,0,0,0,0,0c0,0,0,0,0,0c0,0,0,0.1,0,0.1c0,0,0,0,0,0
			c0,0,0,0,0,0c0,0,0,0,0,0c0,0,0,0,0,0c0,0,0,0,0,0c0,0,0,0,0,0c0,0,0,0,0,0c0,0,0,0,0,0c0,0,0,0,0,0c0,0,0,0,0,0c0,0,0,0,0,0
			c0,0,0,0,0,0c0,0,0,0,0,0c0,0,0,0,0,0c-0.1,0.3-0.2,0.7-0.4,1c0,0,0,0,0,0c0,0,0,0,0,0c0,0,0,0,0,0c0,0,0,0,0,0c0,0,0,0,0,0
			l26.3,10.6c0.7-1.8,1.3-3.6,1.9-5.5L330.6,293.7L330.6,293.7z M331.5,288.4c0,0.1,0,0.2,0,0.3l0,0c0,0,0,0,0,0l0,0c0,0,0,0,0,0
			c0,0,0,0,0,0c0,0,0,0,0,0c0,0,0,0,0,0c0,0,0,0,0,0c0,0,0,0,0,0c0,0,0,0,0,0l0,0c0,0.1,0,0.2,0,0.3l0,0c0,0,0,0,0,0c0,0,0,0,0,0
			c0,0,0,0,0,0c0,0,0,0,0,0c0,0,0,0,0,0c0,0,0,0,0,0c0,0,0,0,0,0c0,0,0,0,0,0c0,0,0,0,0,0c0,0,0,0,0,0c0,0,0,0,0,0c0,0,0,0,0,0
			c0,0,0,0,0,0c0,0,0,0,0,0c0,0,0,0,0,0c0,0,0,0,0,0c0,0,0,0,0,0c0,0,0,0,0,0c0,0,0,0,0,0c0,0,0,0,0,0c0,0.1,0,0.1,0,0.2
			c0,0,0,0,0,0c0,0,0,0,0,0c0,0,0,0,0,0c0,0,0,0,0,0c0,0,0,0,0,0c0,0,0,0,0,0c0,0,0,0,0,0c0,0,0,0,0,0c0,0,0,0,0,0c0,0,0,0,0,0
			c0,0,0,0,0,0c0,0,0,0,0,0c0,0,0,0,0,0c0,0,0,0,0,0c0,0,0,0,0,0c0,0,0,0,0,0c0,0,0,0,0,0c0,0,0,0,0,0c0,0,0,0,0,0c0,0,0,0,0,0
			c0,0,0,0,0,0c0,0,0,0,0,0c0,0,0,0,0,0c0,0,0,0,0,0c0,0,0,0.1,0,0.1c0,0,0,0,0,0c0,0,0,0,0,0c0,0,0,0,0,0c0,0,0,0,0,0c0,0,0,0,0,0
			c0,0,0,0,0,0c0,0,0,0,0,0c0,0,0,0,0,0c0,0,0,0,0,0c0,0,0,0,0,0c0,0,0,0,0,0c0,0,0,0,0,0c0,0,0,0,0,0c0,0.2,0,0.3-0.1,0.5l28,4.6
			c0.3-1.9,0.5-3.8,0.6-5.7L331.5,288.4L331.5,288.4z M359.2,278.6l-28,4.4c0.1,0.9,0.2,1.8,0.3,2.7l28.3-1.4
			C359.7,282.4,359.5,280.5,359.2,278.6L359.2,278.6z M356.1,267.5l-26.4,10.4c0.3,0.8,0.6,1.7,0.8,2.6L358,273
			C357.5,271.1,356.8,269.3,356.1,267.5L356.1,267.5z M350.8,257.3l-23.5,15.8c0.1,0.2,0.3,0.4,0.4,0.7c0,0,0,0,0,0c0,0,0,0,0,0
			c0,0,0,0,0,0c0,0,0,0,0,0c0,0,0,0,0,0c0,0,0,0,0,0c0,0,0,0,0,0c0,0,0,0,0,0c0,0,0,0,0,0c0,0,0,0,0,0c0,0,0,0,0,0c0,0,0,0,0,0
			c0,0,0,0,0,0c0,0,0,0,0,0c0,0,0,0,0,0c0,0,0,0,0,0c0,0,0,0,0,0c0,0,0,0,0,0c0,0,0,0,0,0c0,0,0,0,0,0c0,0,0,0,0,0c0,0,0,0,0,0
			c0,0,0,0,0,0c0,0,0,0,0,0c0.2,0.4,0.5,0.8,0.7,1.2l25.1-13.2C352.8,260.5,351.8,258.9,350.8,257.3L350.8,257.3z M343.4,248.5
			L323.8,269c0.6,0.6,1.3,1.3,1.8,2l21.7-18.3C346.1,251.2,344.8,249.8,343.4,248.5L343.4,248.5z M334.3,241.5l-14.7,24.2
			c0,0,0,0,0,0c0.6,0.3,1.1,0.7,1.6,1.1c0,0,0,0,0,0c0,0,0,0,0,0c0,0,0,0,0,0c0,0,0,0,0,0c0,0,0,0,0,0c0,0,0,0,0,0c0,0,0,0,0,0
			c0,0,0,0,0,0c0,0,0,0,0,0c0,0,0,0,0,0c0,0,0,0,0,0c0,0,0,0,0,0c0,0,0,0,0,0l0,0c0.1,0.1,0.2,0.2,0.3,0.3l17.3-22.5
			C337.5,243.6,335.9,242.5,334.3,241.5L334.3,241.5z M323.8,236.6l-9.2,26.8c0.3,0.1,0.6,0.2,0.8,0.3c0,0,0,0,0,0c0,0,0,0,0,0
			c0,0,0,0,0,0c0,0,0,0,0,0c0,0,0,0,0,0c0,0,0,0,0,0c0,0,0,0,0,0c0,0,0,0,0,0c0,0,0,0,0,0c0,0,0,0,0,0c0,0,0,0,0,0c0,0,0.1,0,0.1,0
			c0,0,0,0,0,0c0,0,0,0,0,0c0,0,0,0,0,0c0,0,0,0,0,0c0,0,0,0,0,0c0,0,0,0,0,0c0,0,0,0,0,0c0,0,0,0,0,0c0,0,0,0,0,0c0,0,0,0,0,0
			c0,0,0,0,0,0c0,0,0,0,0,0c0,0,0,0,0,0c0,0,0,0,0,0c0,0,0,0,0,0c0,0,0,0,0.1,0c0,0,0,0,0,0c0,0,0,0,0,0c0,0,0,0,0,0c0,0,0,0,0,0
			c0,0,0,0,0,0c0,0,0,0,0,0c0,0,0,0,0,0c0,0,0,0,0,0c0,0,0,0,0,0c0,0,0,0,0,0c0,0,0,0,0,0c0,0,0,0,0,0c0,0,0,0,0,0c0,0,0,0,0,0
			c0,0,0,0,0,0c0,0,0,0,0,0c0,0,0,0,0,0c0,0,0,0,0,0c0,0,0,0,0,0c0,0,0,0,0,0c0,0,0,0,0,0c0,0,0,0,0,0c0,0,0,0,0,0c0,0,0,0,0,0
			c0,0,0,0,0,0c0,0,0,0,0,0c0,0,0,0,0,0c0,0,0,0,0,0c0,0,0,0,0,0c0,0,0,0,0,0c0,0,0,0,0,0c0,0,0,0,0,0c0,0,0.1,0,0.1,0.1l0,0
			c0,0,0,0,0,0c0,0,0,0,0,0c0,0,0,0,0,0c0,0,0,0,0,0c0,0,0,0,0,0c0,0,0,0,0,0c0,0,0,0,0,0l0,0c0,0,0.1,0,0.1,0.1l12-25.7
			C327.5,238,325.7,237.3,323.8,236.6L323.8,236.6z M312.6,234.1l-3.2,28.2c0,0,0,0,0,0c0.9,0.1,1.8,0.2,2.7,0.4l6.2-27.7
			C316.4,234.7,314.5,234.3,312.6,234.1L312.6,234.1z M306.6,233.8v28.3c0,0,0,0,0,0c0,0,0,0,0,0c0,0,0,0,0,0c0,0,0,0,0,0l0.1-28.3
			L306.6,233.8L306.6,233.8z"></path>
	</g>
</g>
</svg>