<svg id="Layer_1" xmlns="http://www.w3.org/2000/svg" viewBox="76.90452575683594 122.0999984741211 458.19482421875 502.3999938964844"><style>.st0{fill:#fff}.st1{fill:#231f20}</style><path class="st0" d="M306.4 395.2c58 0 161.7-8.8 200.4-14.1 33.5-4.6 24.6-45.7 24.6-45.7s-72.1 24.6-225 24.6h-.7c-152.9 0-225-24.6-225-24.6s-8.9 41.1 24.6 45.7c38.7 5.3 142.4 14.1 200.4 14.1h.7z"></path><path class="st1" d="M306.4 397.7c43.7 0 87.4-3.3 131-6.9 19.2-1.6 38.4-3.4 57.6-5.6 14.6-1.7 29.2-3.5 36.1-18.4 4.5-9.6 4.9-21.6 2.7-31.9-.3-1.3-1.9-2.2-3.1-1.7-10.9 3.7-22.3 6-33.5 8.3-34.1 6.9-68.8 10.9-103.5 13.3-52.6 3.7-105.5 3.9-158.1 1.1-37.5-2-75.1-5.7-112.1-12.7-14.1-2.6-28.5-5.4-42.2-10-1.2-.4-2.8.5-3.1 1.7-1.9 8.8-1.8 18.7.9 27.4 2.1 6.6 5.9 12.5 11.6 16.4 6.5 4.4 14.2 5.1 21.7 6.1 41.3 5.1 82.9 8.2 124.5 10.7 23.2 1.1 46.3 2.2 69.5 2.2 3.2 0 3.2-5 0-5-41.1 0-82.3-2.9-123.2-6.2-19-1.5-38-3.3-57-5.3-13.8-1.5-31.9-.9-39.7-14.6-5-8.8-5.4-20.7-3.4-30.4-1 .6-2.1 1.2-3.1 1.7 11.1 3.8 22.8 6.2 34.2 8.5 34.3 6.9 69.2 10.9 104 13.3 52.6 3.7 105.5 3.9 158.1 1.1 37.7-2.1 75.5-5.8 112.6-12.7 14.4-2.7 29.1-5.4 43-10.2-1-.6-2.1-1.2-3.1-1.7 1.7 8.2 1.5 17.6-1.2 25.5-2.4 7-7.3 12.6-14.3 15.3-6.6 2.5-14.4 2.7-21.4 3.5-39.4 4.5-78.9 7.6-118.5 9.9-22.4 1.3-44.8 2.3-67.2 2.4-3.1-.1-3.1 4.9.2 4.9z"></path><path class="st0" d="M241.5 434.2l173.2-175c.9-.9.9-2.3 0-3.1-.9-.9-.9-2.3 0-3.1l4.7-4.7c.9-.9 2.3-.9 3.1 0l11 11c.9.9.9 2.3 0 3.1l-4.7 4.7c-.9.9-2.3.9-3.1 0-.9-.9-2.3-.9-3.1 0l-173.2 175s7.8 7.8-7.8 23.5l-47.1 47.1-23.5-23.5 47.1-47.1c15.6-15.7 23.4-7.9 23.4-7.9z"></path><path class="st1" d="M243.3 436c22.1-22.4 44.3-44.7 66.4-67.1l95.6-96.5c3.3-3.4 6.7-6.7 10-10.1.5-.6 1.2-1.1 1.6-1.8.8-1.2 1.2-2.6.8-4.1-.2-.7-1-2.3-1.1-1.8.3-1.3 4.5-4.2 4.5-4.2 1.5.4 4 4 5.1 5.1 1.1 1.1 5 3.8 5.3 5.3 0-.2-3.3 4-4.2 4.2-.2.1-.9-.6-2-.9-1.6-.4-3 .1-4.3 1-2 1.5-3.7 3.7-5.5 5.5l-88.4 89.3c-26.1 26.3-52.5 52.4-78.3 79.1-.4.5-.9.9-1.3 1.3-1 1-.9 2.6 0 3.5 8.1 8.4-15.8 27.9-21.7 33.9l-33.1 33.1h3.5l-23.5-23.5v3.5l30.5-30.5c7.1-7.1 14.1-15.8 22.4-21.6 3.5-2.5 10.8-5.9 14.1-2.7 2.3 2.2 5.9-1.3 3.5-3.5-3.4-3.3-9-3.1-13.2-1.7-10.1 3.4-17.6 13.2-24.9 20.5l-36 36c-1 1-1 2.6 0 3.5l23.5 23.5c1 1 2.6 1 3.5 0l26.7-26.7 16.3-16.3c4.4-4.4 9.1-8.7 12-14.3 2.6-4.9 4.2-12.3-.1-16.8v3.5c23.1-23.3 46.1-46.6 69.2-69.9 31.8-32.1 63.6-64.3 95.4-96.4 2.3-2.3 5.3-6.9 8.3-8.3.3-.2.6-.5 0-.4 1-.1 2.4 1.5 3.9 1.3 1.1-.1 2-.7 2.9-1.4 3.5-2.8 8-7 4.4-11.5-3-3.6-6.9-7.5-10.6-10.6-4.4-3.7-8.6.8-11.5 4.4-.7.9-1.3 1.8-1.4 2.9-.2 1.7 1.4 2.7 1.3 3.9 0-.5-.2-.4-.4 0-.5 1-2.1 2.1-2.9 2.9l-86.9 87.8-81.6 82.5-1.5 1.5c-2.1 2.3 1.4 5.9 3.7 3.6z"></path><path class="st0" d="M362.3 442.1l-175-173.2c-.9-.9-2.3-.9-3.1 0-.9.9-2.3.9-3.1 0l-4.7-4.7c-.9-.9-.9-2.3 0-3.1l11-11c.9-.9 2.3-.9 3.1 0l4.7 4.7c.9.9.9 2.3 0 3.1-.9.9-.9 2.3 0 3.1l175 173.2s7.8-7.8 23.5 7.8l47.1 47.1-23.5 23.5-47.1-47.1c-15.7-15.6-7.9-23.4-7.9-23.4z"></path><path class="st1" d="M364.1 440.3c-22.4-22.1-44.7-44.3-67.1-66.4l-96.5-95.6c-3.4-3.3-6.7-6.7-10.1-10-.6-.5-1.1-1.2-1.8-1.6-1.2-.8-2.6-1.2-4.1-.8-.7.2-2.3 1-1.8 1.1-1.3-.3-4.2-4.5-4.2-4.5.4-1.5 4-4 5.1-5.1 1.1-1.1 3.8-5 5.3-5.3-.2 0 4 3.3 4.2 4.2.1.2-.6.9-.9 2-.4 1.6.1 3 1 4.3 1.5 2 3.7 3.7 5.5 5.5l89.3 88.4c26.3 26.1 52.4 52.5 79.1 78.3.5.4.9.9 1.3 1.3 1 1 2.6.9 3.5 0 8.4-8.1 27.9 15.8 33.9 21.7l33.1 33.1v-3.5l-23.5 23.5h3.5l-30.5-30.5c-7.1-7.1-15.8-14.1-21.6-22.4-2.5-3.5-5.9-10.8-2.7-14.1 2.2-2.3-1.3-5.9-3.5-3.5-3.3 3.4-3.1 9-1.7 13.2 3.4 10.1 13.2 17.6 20.5 24.9l36 36c1 1 2.6 1 3.5 0l23.5-23.5c1-1 1-2.6 0-3.5l-26.7-26.7-16.3-16.3c-4.4-4.4-8.7-9.1-14.3-12-4.9-2.6-12.3-4.2-16.8.1h3.5c-23.3-23.1-46.6-46.1-69.9-69.2-32.1-31.8-64.3-63.6-96.4-95.4-2.3-2.3-6.9-5.3-8.3-8.3-.2-.3-.5-.6-.4 0-.1-1 1.5-2.4 1.3-3.9-.1-1.1-.7-2-1.4-2.9-2.8-3.5-7-8-11.5-4.4-3.6 3-7.5 6.9-10.6 10.6-3.7 4.4.8 8.6 4.4 11.5.9.7 1.8 1.3 2.9 1.4 1.7.2 2.7-1.4 3.9-1.3-.5 0-.4.2 0 .4 1 .5 2.1 2.1 2.9 2.9l87.8 86.9 82.5 81.6 1.5 1.5c2.3 2.1 5.9-1.4 3.6-3.7z"></path><g><path class="st1" d="M220.2 624.5c-11.4 0-16.8-5.5-16.8-21.8 0-17 5.5-23.4 16.3-23.4 12.5 0 15.1 7.4 14.6 16.8l-7.4.5c.6-8.9-2.2-11.8-7-11.8-6.3 0-8.8 4-8.8 17.4s3.2 16.6 9.1 16.6c7.7 0 7.4-7.1 7-13.4l7.3.7c1 11.8-3 18.4-14.3 18.4zM271.4 623.8l-2.3-9.6h-13.5l-2.3 9.6h-7l11.3-43.9h9.5l11.6 43.9h-7.3zm-9.3-36.9l-5 21.4h10.3l-5.3-21.4zM313.6 623.8l-14.7-28.4v28.4h-6.5V580h6.7l14.7 29.7V580h6.5v43.9h-6.7zM351.8 624.5c-10.8 0-17-5.3-17-22.7 0-16.6 6.9-22.6 17-22.6 9.9 0 17 5.9 17 22.6.1 17.6-6.4 22.7-17 22.7zm0-39.7c-5.7 0-9.3 3.3-9.3 17.1 0 14.2 3.4 16.9 9.3 16.9 5.3 0 9.4-2.8 9.4-16.9 0-13.9-4.2-17.1-9.4-17.1zM383.4 623.8V580h24.1v5.8h-16.9v12.6H406v5.8h-15.4V618h18.2v5.8h-25.4z"></path></g><g><path class="st1" d="M181.7 173.8c-11.3 1.4-17.3-3.4-19.3-19.6-2.1-16.9 2.7-23.9 13.3-25.2 12.4-1.5 15.9 5.5 16.5 15l-7.2 1.4c-.5-8.9-3.6-11.4-8.3-10.8-6.2.8-8.2 5-6.6 18.3 1.6 13.3 5.2 16 11.1 15.3 7.7-.9 6.4-8 5.3-14.1l7.3-.2c2.2 11.5-.9 18.5-12.1 19.9zM221.5 131l3 37.9-7.2.6-3-37.9-10.7.8-.5-5.8 28.4-2.2.5 5.8-10.5.8zM268.2 166.6c-.8-1.1-1.2-3-1.3-5-.1-1.3-.2-5.3-.3-7.4-.2-2.7-1.8-5.3-5.9-5.1l-6.4.3.7 17.8-7.2.3-1.7-43.8 13.9-.7c9.1-.4 14 4 14.3 12.5.3 6.7-3.1 9-7 10.5 4.4.2 6.6 3.9 6.8 10.8.1 1.7.3 3.5.4 4.6.2 1.8.6 4.1 1.1 4.9l-7.4.3zm-9.1-37.7l-5.6.2.6 14.4 6.3-.2c4.2-.2 6.8-2.6 6.6-7.3-.2-4.9-3.3-7.3-7.9-7.1zM290.8 166l-.2-43.9h7.2l.2 38 16.1-.1v5.8l-23.3.2zM370 167.7l-1.9-9.7-13.5-.7-2.8 9.5-7-.3 13.4-43.2 9.5.5 9.4 44.4-7.1-.5zm-7.5-37.3l-6 21.1 10.3.5-4.3-21.6zM390.6 169.1l3.9-43.7 7.2.6-3.3 37.9 16 1.4-.5 5.8-23.3-2zM442.1 136.2l-4.7 37.7-7.1-.9 4.7-37.7-10.7-1.3.7-5.8 28.3 3.5-.7 5.8-10.5-1.3z"></path></g></svg>